<svg fill="#ffffff" height="15" viewBox="0 0 48 48" width="15" xmlns="http://www.w3.org/2000/svg"><g fill="#a6cfff"><path d="m4.08437 5.84749c.05731-.86128.61813-1.53022 1.47275-1.6515.73718-.10462 1.83986-.19599 3.44288-.19599 1.603 0 2.7057.09137 3.4429.19599.8546.12128 1.4154.79022 1.4727 1.65151.046.69088.0844 1.70212.0844 3.1525 0 1.4504-.0384 2.4616-.0844 3.1525-.0573.8613-.6181 1.5302-1.4727 1.6515-.7372.1046-1.8399.196-3.4429.196-1.60302 0-2.7057-.0914-3.44288-.196-.85462-.1213-1.41544-.7902-1.47275-1.6515-.04596-.6909-.08437-1.7021-.08437-3.1525 0-1.45039.03841-2.46162.08437-3.15251z"/><path d="m4.08437 20.8475c.05731-.8613.61813-1.5302 1.47275-1.6515.73718-.1046 1.83986-.196 3.44288-.196 1.603 0 2.7057.0914 3.4429.196.8546.1213 1.4154.7902 1.4727 1.6515.046.6909.0844 1.7021.0844 3.1525s-.0384 2.4616-.0844 3.1525c-.0573.8613-.6181 1.5302-1.4727 1.6515-.7372.1046-1.8399.196-3.4429.196-1.60302 0-2.7057-.0914-3.44288-.196-.85462-.1213-1.41544-.7902-1.47275-1.6515-.04596-.6909-.08437-1.7021-.08437-3.1525s.03841-2.4616.08437-3.1525z"/><path d="m5.84749 43.9156c-.86128-.0573-1.53022-.6181-1.6515-1.4727-.10462-.7372-.19599-1.8399-.19599-3.4429s.09137-2.7057.19599-3.4429c.12128-.8546.79022-1.4154 1.6515-1.4727.69089-.046 1.70212-.0844 3.15251-.0844 1.4504 0 2.4616.0384 3.1525.0844.8613.0573 1.5302.6181 1.6515 1.4727.1046.7372.196 1.8399.196 3.4429s-.0914 2.7057-.196 3.4429c-.1213.8546-.7902 1.4154-1.6515 1.4727-.6909.046-1.7021.0844-3.1525.0844-1.45039 0-2.46162-.0384-3.15251-.0844z"/><path d="m42.1525 4.08437c.8613.05731 1.5302.61813 1.6515 1.47275.1046.73718.196 1.83986.196 3.44288 0 1.603-.0914 2.7057-.196 3.4429-.1213.8546-.7902 1.4154-1.6515 1.4727-.6909.046-1.7021.0844-3.1525.0844s-2.4616-.0384-3.1525-.0844c-.8613-.0573-1.5302-.6181-1.6515-1.4727-.1046-.7372-.196-1.8399-.196-3.4429 0-1.60302.0914-2.7057.196-3.44288.1213-.85463.7902-1.41544 1.6515-1.47275.6909-.04596 1.7021-.08437 3.1525-.08437s2.4616.03841 3.1525.08437z"/><path d="m42.1525 19.0844c.8613.0573 1.5302.6181 1.6515 1.4727.1046.7372.196 1.8399.196 3.4429s-.0914 2.7057-.196 3.4429c-.1213.8546-.7902 1.4154-1.6515 1.4727-.6909.046-1.7021.0844-3.1525.0844s-2.4616-.0384-3.1525-.0844c-.8613-.0573-1.5302-.6181-1.6515-1.4727-.1046-.7372-.196-1.8399-.196-3.4429s.0914-2.7057.196-3.4429c.1213-.8546.7902-1.4154 1.6515-1.4727.6909-.046 1.7021-.0844 3.1525-.0844s2.4616.0384 3.1525.0844z"/><path d="m43.9156 42.1525c-.0573.8613-.6181 1.5302-1.4727 1.6515-.7372.1046-1.8399.196-3.4429.196s-2.7057-.0914-3.4429-.196c-.8546-.1213-1.4154-.7902-1.4727-1.6515-.046-.6909-.0844-1.7021-.0844-3.1525s.0384-2.4616.0844-3.1525c.0573-.8613.6181-1.5302 1.4727-1.6515.7372-.1046 1.8399-.196 3.4429-.196s2.7057.0914 3.4429.196c.8546.1213 1.4154.7902 1.4727 1.6515.046.6909.0844 1.7021.0844 3.1525s-.0384 2.4616-.0844 3.1525z"/><path d="m19.0844 5.84749c.0573-.86128.6181-1.53022 1.4727-1.6515.7372-.10462 1.8399-.19599 3.4429-.19599s2.7057.09137 3.4429.19599c.8546.12128 1.4154.79022 1.4727 1.6515.046.69089.0844 1.70212.0844 3.15251 0 1.4504-.0384 2.4616-.0844 3.1525-.0573.8613-.6181 1.5302-1.4727 1.6515-.7372.1046-1.8399.196-3.4429.196s-2.7057-.0914-3.4429-.196c-.8546-.1213-1.4154-.7902-1.4727-1.6515-.046-.6909-.0844-1.7021-.0844-3.1525 0-1.45039.0384-2.46163.0844-3.15251z"/><path d="m19.0844 20.8475c.0573-.8613.6181-1.5302 1.4727-1.6515.7372-.1046 1.8399-.196 3.4429-.196s2.7057.0914 3.4429.196c.8546.1213 1.4154.7902 1.4727 1.6515.046.6909.0844 1.7021.0844 3.1525s-.0384 2.4616-.0844 3.1525c-.0573.8613-.6181 1.5302-1.4727 1.6515-.7372.1046-1.8399.196-3.4429.196s-2.7057-.0914-3.4429-.196c-.8546-.1213-1.4154-.7902-1.4727-1.6515-.046-.6909-.0844-1.7021-.0844-3.1525s.0384-2.4616.0844-3.1525z"/><path d="m20.8475 43.9156c-.8613-.0573-1.5302-.6181-1.6515-1.4727-.1046-.7372-.196-1.8399-.196-3.4429s.0914-2.7057.196-3.4429c.1213-.8546.7902-1.4154 1.6515-1.4727.6909-.046 1.7021-.0844 3.1525-.0844s2.4616.0384 3.1525.0844c.8613.0573 1.5302.6181 1.6515 1.4727.1046.7372.196 1.8399.196 3.4429s-.0914 2.7057-.196 3.4429c-.1213.8546-.7902 1.4154-1.6515 1.4727-.6909.046-1.7021.0844-3.1525.0844s-2.4616-.0384-3.1525-.0844z"/></g></svg>