<?xml version="1.0" encoding="UTF-8" standalone="no"?>
<!-- Created with Inkscape (http://www.inkscape.org/) -->

<svg
   xmlns:dc="http://purl.org/dc/elements/1.1/"
   xmlns:cc="http://creativecommons.org/ns#"
   xmlns:rdf="http://www.w3.org/1999/02/22-rdf-syntax-ns#"
   xmlns:svg="http://www.w3.org/2000/svg"
   xmlns="http://www.w3.org/2000/svg"
   xmlns:sodipodi="http://sodipodi.sourceforge.net/DTD/sodipodi-0.dtd"
   xmlns:inkscape="http://www.inkscape.org/namespaces/inkscape"
   id="svg3406"
   version="1.1"
   inkscape:version="0.91 r13725"
   width="25.54201"
   height="25.00061"
   viewBox="0 0 253.54201 512.00061"
   sodipodi:docname="silhouette-football-31.svg">
  <title
     id="title3340">Silhouette Football 31</title>
  <metadata
     id="metadata3412">
    <rdf:RDF>
      <cc:Work
         rdf:about="">
        <dc:format>image/svg+xml</dc:format>
        <dc:type
           rdf:resource="http://purl.org/dc/dcmitype/StillImage" />
        <dc:title>Silhouette Football 31</dc:title>
        <cc:license
           rdf:resource="http://creativecommons.org/publicdomain/zero/1.0/" />
        <dc:date>2017-03-21</dc:date>
        <dc:creator>
          <cc:Agent>
            <dc:title>JLouis</dc:title>
          </cc:Agent>
        </dc:creator>
        <dc:rights>
          <cc:Agent>
            <dc:title>Domaine pubic</dc:title>
          </cc:Agent>
        </dc:rights>
        <dc:publisher>
          <cc:Agent>
            <dc:title>inkscape</dc:title>
          </cc:Agent>
        </dc:publisher>
        <dc:subject>
          <rdf:Bag>
            <rdf:li>silhouette</rdf:li>
            <rdf:li>soccer</rdf:li>
            <rdf:li>player</rdf:li>
            <rdf:li>sport</rdf:li>
            <rdf:li>football</rdf:li>
            <rdf:li>joueurs</rdf:li>
          </rdf:Bag>
        </dc:subject>
        <dc:description>Soccer player in silhouette - Joueur de football en silhouette</dc:description>
      </cc:Work>
      <cc:License
         rdf:about="http://creativecommons.org/publicdomain/zero/1.0/">
        <cc:permits
           rdf:resource="http://creativecommons.org/ns#Reproduction" />
        <cc:permits
           rdf:resource="http://creativecommons.org/ns#Distribution" />
        <cc:permits
           rdf:resource="http://creativecommons.org/ns#DerivativeWorks" />
      </cc:License>
    </rdf:RDF>
  </metadata>
  <defs
     id="defs3410" />
  <sodipodi:namedview
     pagecolor="#FFFFFF"
     bordercolor="#3B3C36"
     borderopacity="1"
     objecttolerance="10"
     gridtolerance="10"
     guidetolerance="10"
     inkscape:pageopacity="0"
     inkscape:pageshadow="2"
     inkscape:window-width="1235"
     inkscape:window-height="756"
     id="namedview3408"
     showgrid="false"
     fit-margin-top="0"
     fit-margin-left="0"
     fit-margin-right="0"
     fit-margin-bottom="0"
     inkscape:zoom="0.75333333"
     inkscape:cx="-115.34094"
     inkscape:cy="219.309"
     inkscape:window-x="0"
     inkscape:window-y="0"
     inkscape:window-maximized="1"
     inkscape:current-layer="svg3406" />
  <g
     id="g3416"
     transform="matrix(0.78835454,0,0,0.78835454,-0.23709779,-0.24201194)">
    <path
       style="fill:#d0e9fb"
       d="m 112.9281,647.76686 c -9.2576,-3.3091 -23.027888,-15.8752 -28.14547,-25.6842 -3.606586,-6.91284 -4.021746,-8.80332 -4.025945,-18.33266 -0.0038,-8.57669 0.555219,-11.77689 2.899625,-16.60005 4.187546,-8.61506 12.947847,-17.77779 20.55571,-21.49996 l 6.59355,-3.22593 -0.26622,-20.27452 c -0.14642,-11.151 -1.16029,-27.30579 -2.25304,-35.89954 -2.79757,-22.00111 -2.64259,-39.73741 0.44458,-50.87784 2.33561,-8.42835 3.77044,-11.67751 13.20101,-29.89371 5.54533,-10.71139 8.87006,-25.12951 7.0191,-30.43917 -1.17616,-3.37392 -0.99639,-6.129 0.9723,-14.90173 1.32839,-5.9194 2.75454,-13.57505 3.16924,-17.01255 0.99167,-8.22002 5.28818,-20.22254 9.07943,-25.36386 1.94989,-2.64424 3.71314,-7.77954 4.93579,-14.375 5.24799,-28.3097 6.66175,-32.30955 12.33335,-34.8937 2.35089,-1.07114 3.05889,-2.35407 3.05889,-5.54279 0,-2.28199 0.79531,-6.26981 1.76738,-8.86185 2.58787,-6.90074 3.55121,-18.17605 3.71334,-43.4628 l 0.14428,-22.5 -4.66758,-14.07324 c -4.79652,-14.46205 -9.06196,-24.06811 -10.67032,-24.03033 -0.50166,0.0112 -5.02726,1.09021 -10.05691,2.39652 -7.63854,1.9839 -10.2122,3.37836 -15.625,8.46601 -7.75559,7.2897 -23.62072,19.43431 -33.98019,26.01155 -11.082093,7.03603 -31.27752,21.54334 -35.562886,25.54646 -2.056512,1.92108 -6.352449,4.1509 -9.546528,4.95518 -3.94603,0.99362 -8.177072,3.54819 -13.200611,7.97009 -8.249291,7.26132 -11.84681,8.32691 -11.420559,3.38276 l 0.269418,-3.125 -1.984383,2.8125 c -1.984464,2.81261 -4.733785,3.48066 -8.452217,2.05376 -2.513962,-0.9647 -2.567971,-6.65772 -0.118775,-12.51949 1.342833,-3.21385 1.504037,-5.11017 0.581021,-6.83485 -0.87226,-1.62983 -0.867314,-3.15326 0.0156,-4.80298 1.393724,-2.6042 1.057147,-2.81627 -7.0562061,-4.44597 -4.394857,-0.88277 -7.30503688,-3.56501 -6.05771378,-5.58322 C 1.0346699,215.58714 5.3760763,215 10.238729,215 c 6.84007,0 9.816513,-0.60279 13.15031,-2.66319 3.60273,-2.22661 5.614126,-2.55842 12.269881,-2.02416 5.887588,0.47259 8.71017,0.14353 10.838419,-1.2636 6.114928,-4.04299 24.081955,-22.68867 32.207478,-33.42405 4.683272,-6.1875 10.840823,-13.11487 13.683449,-15.39417 7.072504,-5.67094 18.150444,-11.33754 23.989754,-12.27129 5.10302,-0.816 9.48192,-4.92515 18.62198,-17.47481 10.24387,-14.06526 12.78006,-15.70693 29.375,-19.01448 5.65747,-1.1276 24.34268,-7.27125 25.4341,-8.36268 0.24642,-0.24643 -1.09761,-6.249564 -2.98675,-13.340307 -5.45829,-20.487372 -7.4214,-43.491153 -4.39154,-51.46029 0.87559,-2.302954 0.72189,-3.496578 -0.59048,-4.58575 -2.18413,-1.812668 -3.62502,-8.920704 -2.62003,-12.924897 0.91994,-3.665317 12.16336,-12.3259855 18.87331,-14.5378845 2.73275,-0.9008316 9.44095,-2.6084316 14.90713,-3.7946667 l 9.9385,-2.15679117 5.9592,4.53400817 c 3.27755,2.4937046 5.99122,5.1116461 6.03037,5.8176482 0.0391,0.706002 2.39825,4.362251 5.24245,8.125 7.11394,9.41145 8.83046,13.986029 9.60265,25.59136 1.24375,18.692606 1.02284,20.850696 -2.73357,26.703838 -2.20688,3.438691 -3.74865,7.861635 -4.17271,11.970355 -0.61739,5.9819 -0.35102,6.882741 3.24686,10.980491 2.98725,3.402282 6.21942,5.208136 13.58996,7.592856 5.3188,1.72089 11.74052,3.48416 14.27049,3.91839 6.71507,1.15253 21.65547,8.98684 25.22241,13.2259 3.71038,4.40954 5.80265,13.36832 5.80265,24.84603 0,4.6694 0.83766,11.25109 1.86148,14.62598 2.13516,7.03839 2.47731,21.64952 0.63921,27.29741 -0.68713,2.11131 -1.81983,6.17744 -2.51711,9.03585 -0.69728,2.8584 -3.51009,7.91059 -6.25068,11.22708 -4.95066,5.99098 -4.9829,6.09905 -4.9829,16.70303 0,7.07849 -0.88932,13.82195 -2.64061,20.02291 -2.40823,8.52699 -2.57224,11.33012 -1.86364,31.84988 0.78237,22.65626 1.61367,28.155 7.36995,48.75 2.62605,9.39555 3.38862,16.09216 4.62619,40.625 1.28682,25.50972 1.21366,32.00668 -0.55603,49.375 -1.12082,11 -2.57688,21.62932 -3.2357,23.62071 -1.78985,5.41014 0.63358,12.47163 6.93535,20.20849 6.79162,8.33827 7.70259,11.60689 9.57415,34.35272 1.167,14.18295 1.16598,20.93173 -0.005,30.45699 -1.26167,10.26653 -1.20982,13.27314 0.32203,18.6739 1.99115,7.02006 6.51527,35.7911 7.47555,47.5406 0.46841,5.73121 -0.0487,9.07964 -2.34431,15.17837 -6.05749,16.09327 -14.17373,23.61918 -24.64583,22.85325 -4.48486,-0.32804 -5.63026,-1.01416 -7.73791,-4.63514 -2.18016,-3.74555 -2.5793,-7.60384 -3.36218,-32.5 -0.48857,-15.53744 -1.21055,-32.90948 -1.60436,-38.60454 -0.43677,-6.31629 -0.19081,-11.50736 0.63066,-13.31032 1.69014,-3.70945 -0.8283,-11.87637 -8.3137,-26.96003 -2.90001,-5.84375 -6.27041,-13.71875 -7.48976,-17.5 -1.21936,-3.78125 -5.47346,-12.78125 -9.45355,-20 -4.9523,-8.98206 -8.29376,-17.07065 -10.58586,-25.625 -1.84213,-6.875 -4.98208,-16.05981 -6.97766,-20.4107 -3.393,-7.39761 -3.85097,-7.86332 -7.06075,-7.18021 -2.89993,0.61717 -3.85169,0.0794 -6.13504,-3.46665 -3.77416,-5.86124 -5.40728,-12.56413 -5.4154,-22.22689 -0.009,-10.10025 -2.20118,-13.08379 -5.64049,-7.67491 -1.20982,1.90265 -3.81221,4.97452 -5.78309,6.8264 -3.40546,3.20021 -3.58301,3.89977 -3.58301,14.11931 0,9.87049 -0.26251,11.0148 -3.20098,13.95326 -3.36723,3.36724 -3.85467,3.39487 -24.8148,1.40588 -3.18133,-0.30189 -4.10881,0.4432 -7.34973,5.90451 -5.4079,9.11286 -8.27182,18.14525 -10.9687,34.5937 -1.31603,8.02654 -4.3575,20.02131 -6.75882,26.65506 -2.40132,6.63375 -4.99786,15.81659 -5.77008,20.4063 -0.77224,4.58971 -2.46894,12.27114 -3.77048,17.06982 -2.97209,10.95796 -2.96044,14.11125 0.0898,24.31143 1.35089,4.51753 3.17901,10.9628 4.0625,14.32283 0.97623,3.71273 2.70929,6.83352 4.41809,7.95577 2.59671,1.7054 14.06325,17.69777 14.06325,19.61399 0,0.46349 1.6621,2.91909 3.69356,5.4569 5.101,6.37244 7.86569,13.48559 6.91819,17.79951 -0.59025,2.68742 -1.89985,3.92688 -5.38338,5.09507 -2.53186,0.84905 -5.78476,1.45595 -7.22867,1.34867 -1.70349,-0.12658 -3.12784,0.90791 -4.05654,2.94619 -3.27514,7.18815 -11.65621,16.5184 -17.88151,19.90663 -8.46541,4.60746 -20.13632,5.46538 -29.38355,2.15999 z"
       id="path3430"
       inkscape:connector-curvature="0" />
    <path
       style="fill:#abd9f9"
       d="M 115.07032,648.05948 C 104.58441,645.15905 92.330476,634.57174 85.487346,622.5 c -4.213038,-7.43207 -4.61265,-8.97782 -4.685745,-18.125 -0.08926,-11.1697 2.334895,-18.20912 9.298368,-27.00122 4.469566,-5.64329 12.943271,-11.83503 17.899051,-13.07885 2.96404,-0.74393 3.28511,-1.29392 2.59353,-4.44266 -0.43411,-1.97648 -0.17038,-5.46893 0.58607,-7.761 1.05742,-3.20399 0.80558,-9.92341 -1.08939,-29.06682 -3.88617,-39.25905 -4.36854,-53.4634 -2.16814,-63.846 1.79485,-8.46901 6.44,-19.39493 14.30668,-33.65093 4.99413,-9.0504 6.88962,-17.02552 7.10706,-29.90252 0.37713,-22.33524 7.08835,-51.63231 13.33293,-58.20347 2.48855,-2.61871 4.45505,-9.20557 6.13413,-20.54653 2.4722,-16.69789 4.6181,-22.75511 9.41839,-26.58526 2.9623,-2.36363 4.27966,-4.44781 4.27968,-6.77086 3e-5,-1.84588 0.6224,-4.93963 1.38307,-6.875 1.5887,-4.04214 3.63501,-18.73147 4.16985,-29.93279 0.20126,-4.21516 0.73843,-8.26668 1.19373,-9.00336 0.4553,-0.73669 0.28039,-8.09913 -0.38868,-16.36099 -0.97812,-12.07781 -2.1989,-17.95979 -6.22954,-30.0151 -5.47573,-16.37739 -8.08298,-21.3367 -11.20965,-21.32209 -1.12405,0.005 -5.54398,1.07403 -9.82204,2.37505 -5.87625,1.78706 -9.8499,4.17494 -16.25,9.76505 -10.16053,8.87463 -26.11841,20.89394 -34.7217,26.15201 -10.279371,6.28247 -29.716677,20.37989 -31.386522,22.76393 -1.616468,2.30782 -8.72323,5.74374 -14.368689,6.94682 -1.790366,0.38155 -6.733504,3.79734 -10.98475,7.59065 -4.251247,3.79331 -8.177026,6.89694 -8.723955,6.89694 -1.992694,0 -2.544442,-1.6323 -1.323124,-3.91435 1.653919,-3.09038 -0.360735,-2.98733 -3.21296,0.16435 -2.719049,3.00451 -5.97587,3.21454 -8.204587,0.5291 -1.335403,-1.60906 -1.344092,-2.9286 -0.04733,-7.1875 0.873604,-2.86913 1.619568,-8.30479 1.657698,-12.07925 l 0.06932,-6.86264 -4.8625543,-0.99755 c -2.6744049,-0.54865 -5.9848143,-1.84205 -7.3564653,-2.87421 -3.6769766,-2.76691 -0.537203,-4.23534 9.1062086,-4.25881 5.512227,-0.0134 9.413758,-0.81064 13.052803,-2.66714 4.353735,-2.22111 6.467567,-2.51716 13.11212,-1.8364 l 7.921614,0.81159 12.775583,-12.18269 c 7.02657,-6.70047 15.91819,-16.42096 19.759155,-21.60109 3.840965,-5.18012 9.816685,-12.04627 13.279377,-15.2581 6.27573,-5.82106 19.711948,-13.53531 23.574988,-13.53531 6.54257,0 10.86737,-4.21181 27.09445,-26.38659 3.97875,-5.43708 9.48881,-8.22956 19.25807,-9.75993 4.02025,-0.62978 11.24704,-2.59574 16.05954,-4.36882 4.8125,-1.77307 9.73437,-3.22622 10.9375,-3.22921 3.00469,-0.007 2.81001,-2.42214 -1.5625,-19.38045 -2.0625,-7.999174 -3.75314,-16.615312 -3.75698,-19.146976 -0.004,-2.531663 -0.57987,-6.665694 -1.2801,-9.186736 -0.93301,-3.359205 -0.80792,-6.845824 0.46825,-13.051507 1.61383,-7.847493 1.57059,-8.74788 -0.59022,-12.291287 -2.55619,-4.19177 -3.01848,-9.596878 -1.12363,-13.137433 1.51325,-2.827535 12.72144,-10.241898 19.40768,-12.8384324 2.75,-1.0679351 7.53125,-2.2839558 10.625,-2.7022683 3.09375,-0.4183124 7.32992,-1.2506705 9.41371,-1.8496848 3.3865,-0.973497 4.39669,-0.54274502 9.51581,4.0576039 12.65602,11.3734616 21.42497,29.2148096 21.01217,42.7514286 -0.0821,2.692411 0.24226,6.431775 0.72082,8.309697 1.14029,4.474655 0.12013,8.208395 -3.83514,14.036855 -3.78903,5.583462 -5.32245,15.257541 -3.22072,20.319068 1.75747,4.232486 8.77832,9.222252 15.67006,11.136852 2.80406,0.77899 9.54981,2.60973 14.99058,4.06832 16.05743,4.30476 25.8601,11.33827 28.26868,20.28309 0.71072,2.6394 1.56803,9.84033 1.90513,16.00206 0.33711,6.16174 1.44452,13.56015 2.46091,16.44091 4.41936,12.52582 -0.0249,37.53734 -8.41076,47.33435 -4.2048,4.91237 -4.39393,5.57028 -5.14779,17.90692 -0.43042,7.04395 -1.63336,15.90092 -2.6732,19.68217 -3.2843,11.9431 -1.72515,56.32963 2.35954,67.1727 8.57605,22.76566 11.43669,75.66405 6.06769,112.2023 -2.7011,18.38201 -2.54787,23.8246 0.78656,27.93771 5.27089,6.50179 10.1686,14.54572 11.50409,18.89414 1.97476,6.42996 3.01465,53.87211 1.2893,58.82145 -0.93742,2.68906 -0.98103,4.72019 -0.13528,6.30048 2.30043,4.29837 8.48463,42.87271 8.81073,54.95737 0.31998,11.85834 -6.34033,25.97258 -15.32857,32.48363 -4.38786,3.17856 -6.29172,3.78121 -10.97886,3.47531 -5.23716,-0.34181 -5.85796,-0.75216 -8.12416,-5.37009 -2.59825,-5.29456 -2.75089,-8.0331 -3.83509,-68.81144 -0.46002,-25.78758 -1.19874,-29.2646 -9.28195,-43.68856 -1.92639,-3.4375 -4.472,-9.34375 -5.65691,-13.125 -2.36699,-7.55344 -9.02784,-21.25249 -13.63338,-28.03912 -1.62041,-2.38782 -4.78335,-10.97772 -7.02876,-19.08868 -2.2454,-8.11096 -5.56781,-17.84095 -7.38312,-21.6222 -2.84968,-5.93581 -3.79044,-6.88175 -6.88658,-6.92444 -6.76262,-0.0932 -11.96551,-12.07908 -11.96551,-27.56485 0,-8.54257 -2.06371,-11.4025 -5.27871,-7.3153 -1.22172,1.55315 -2.22129,3.41853 -2.22129,4.14528 0,0.72673 -1.26563,1.98785 -2.8125,2.80246 -4.29234,2.26041 -4.64775,3.40476 -4.66836,15.03087 -0.0246,13.89699 -1.60013,16.21177 -11.59848,17.0409 -4.56332,0.37843 -9.05787,-0.123 -12.93032,-1.44243 C 178.47571,420.91012 175.66489,420 175.49406,420 c -0.80006,0 -8.09382,13.86561 -10.52065,20 -1.4959,3.78125 -3.49261,11.9375 -4.43713,18.125 -1.96104,12.84661 -5.06996,24.86284 -9.70979,37.52931 -1.76877,4.82862 -3.83798,12.7884 -4.59824,17.68842 -0.76026,4.9 -2.43224,12.37683 -3.71551,16.61518 -2.18255,7.20849 -2.20586,8.16492 -0.36108,14.81159 1.08468,3.90803 2.88882,11.55591 4.00921,16.99532 1.62959,7.91155 2.59165,10.13728 4.80957,11.12694 1.52487,0.68042 5.4074,5.23 8.62782,10.11018 3.22044,4.88018 7.46708,11.25163 9.43699,14.1588 5.98533,8.83304 8.65373,15.92946 7.31441,19.45214 -1.17737,3.09672 -6.76247,5.87688 -11.84869,5.89806 -1.83238,0.008 -4.08023,2.26811 -7.43807,7.4799 -5.35719,8.31502 -11.79871,14.50821 -17.59699,16.91859 -6.52137,2.71096 -16.97138,3.20359 -24.39559,1.15005 z"
       id="path3428"
       inkscape:connector-curvature="0" />
    <path
       style="fill:#91cef9"
       d="m 118.65056,648.65522 c -3.14844,-0.48786 -7.92969,-2.02893 -10.625,-3.42462 -6.80015,-3.52122 -19.454906,-17.00451 -23.575155,-25.11864 -3.105729,-6.1162 -3.392494,-7.78994 -2.998328,-17.5 0.334179,-8.2323 1.149519,-12.19494 3.495188,-16.98696 3.867574,-7.90117 13.253344,-17.13313 20.440945,-20.10595 l 5.54046,-2.29155 0.68217,-9.01986 c 0.68165,-9.01295 -0.24288,-23.56977 -2.85165,-44.89978 -0.76128,-6.22441 -1.49666,-19.44316 -1.63417,-29.375 -0.27286,-19.70745 1.42168,-27.7503 8.86437,-42.07322 12.0167,-23.12529 14.60712,-31.23654 13.45012,-42.1157 -0.52966,-4.98047 -0.17497,-10.43268 1.02421,-15.74394 1.00895,-4.46875 2.13726,-10.4632 2.50732,-13.32101 1.5573,-12.02597 5.9181,-24.41343 10.27201,-29.17899 2.09381,-2.29179 3.39277,-6.29123 4.87179,-15 4.43622,-26.12139 4.56622,-26.54368 9.72445,-31.58791 5.01877,-4.90788 5.18335,-5.40965 8.49857,-25.91209 2.33275,-14.42654 2.99779,-24.06275 2.7281,-39.5296 -0.23261,-13.34023 -0.79685,-16.91169 -4.71281,-29.8308 -4.91301,-16.20851 -8.48109,-24.13343 -11.36376,-25.23961 -1.04371,-0.4005 -5.53728,0.257 -9.98569,1.46112 -6.58142,1.78151 -9.91754,3.73304 -17.9096,10.47661 -10.24036,8.64064 -21.29607,16.72302 -47.5941,34.79412 -8.59375,5.90532 -17.727404,12.61497 -20.297009,14.91031 -2.905113,2.59504 -6.566742,4.47634 -9.682053,4.97449 -3.695465,0.59093 -7.169169,2.70717 -13.238765,8.06531 -4.753799,4.19656 -8.969352,6.97996 -9.982555,6.59115 -1.310665,-0.50294 -1.432648,-1.27314 -0.482745,-3.04805 1.671348,-3.12295 -0.32323,-3.04486 -3.191873,0.125 -2.719049,3.00451 -5.97587,3.21454 -8.204587,0.5291 -1.343324,-1.6186 -1.346305,-2.90334 -0.01668,-7.1875 0.890464,-2.86913 1.645069,-8.2964 1.676901,-12.0606 l 0.05788,-6.844 -5.1447889,-1.281 C -2.2902533,219.09641 -0.95053105,215 11.252321,215 c 6.513435,0 9.693186,-0.64218 13.083005,-2.64221 3.816675,-2.2519 5.635133,-2.51833 12.309653,-1.80355 7.328972,0.78486 8.110115,0.61355 12.17514,-2.67028 8.414745,-6.79763 23.213832,-22.36073 29.756882,-31.29311 3.639683,-4.96878 9.413347,-11.54775 12.830363,-14.61995 6.502735,-5.84651 19.808276,-13.2209 23.854366,-13.2209 4.65383,0 9.22985,-3.6443 16.61327,-13.23066 12.86551,-16.70411 16.39281,-20.10113 22.45771,-21.6283 3.03839,-0.76507 7.40009,-1.39104 9.69268,-1.39104 2.29259,0 5.27789,-0.77601 6.63397,-1.72447 1.3561,-0.94846 6.12189,-2.7196 10.59064,-3.93587 4.46875,-1.21626 8.50984,-2.54962 8.98021,-2.96302 0.47037,-0.4134 -1.01381,-7.623511 -3.29816,-16.022466 -4.82038,-17.723242 -6.82528,-38.966435 -4.4945,-47.622247 1.18466,-4.399525 1.10734,-5.615612 -0.45655,-7.179495 -2.81544,-2.815446 -3.73506,-9.749302 -1.78146,-13.432033 3.66717,-6.91296 16.40725,-13.1499224 35.54708,-17.402233 l 7.62164,-1.69330211 5.55581,5.05006811 c 5.68535,5.167804 16.14683,19.987879 18.66839,26.446248 0.77388,1.982101 1.5291,7.850154 1.67826,13.040119 0.14918,5.189963 0.7113,10.148336 1.24915,11.018606 1.52467,2.466953 -0.27056,9.453839 -3.74433,14.572739 -4.37074,6.440632 -5.88075,15.111824 -3.47802,19.972356 2.31839,4.689919 8.09072,9.337756 13.32565,10.72974 27.5761,7.33257 33.50429,9.74585 40.58848,16.52298 4.94362,4.72934 6.18896,9.07734 7.10277,24.79875 0.38527,6.62832 1.54088,14.4334 2.56803,17.34465 2.4012,6.8057 2.39737,20.04113 -0.007,25.79668 -1.03125,2.46814 -1.875,5.57175 -1.875,6.89692 0,3.19015 -3.29384,9.48819 -7.47201,14.28698 -3.04865,3.50149 -3.45257,5.13474 -4.17333,16.875 -0.4389,7.14906 -1.7249,16.09205 -2.85779,19.8733 -3.22391,10.7605 -2.3023,48.96341 1.52758,63.32097 7.15934,26.83922 7.83832,31.06967 8.69576,54.17903 1.29123,34.80084 0.76169,48.26829 -2.7364,69.59277 -2.24467,13.68362 -1.19906,19.3207 4.60785,24.84177 5.3546,5.09101 7.26963,9.2109 9.36009,20.13676 2.04487,10.68762 2.48716,48.45399 0.6248,53.35235 -0.80364,2.11374 -0.62508,4.99535 0.56661,9.14387 2.50343,8.71488 5.79131,27.74213 7.41871,42.93248 1.33368,12.44885 1.25784,13.54356 -1.4721,21.25 -1.58301,4.46875 -4.43982,10.37022 -6.34847,13.11439 -6.53585,9.39693 -18.71181,13.5145 -23.80318,8.04956 -3.33582,-3.58059 -5.43283,-18.42669 -5.19641,-36.78895 0.34358,-26.68562 -0.90447,-57.68797 -2.52304,-62.67414 -0.86158,-2.65422 -3.94026,-9.60711 -6.84147,-15.45086 -2.90123,-5.84375 -6.27484,-13.71875 -7.49693,-17.5 -2.20103,-6.81018 -5.26226,-12.87574 -11.98638,-23.75 -1.91304,-3.09375 -5.22314,-11.92713 -7.35579,-19.62973 -6.3053,-22.77311 -10.78591,-31.39597 -15.11113,-29.08118 -4.93282,2.63996 -11.11583,-12.70947 -11.15745,-27.69854 -0.0268,-9.64983 -2.31487,-11.38881 -6.35373,-4.82898 -1.67244,2.71633 -4.02385,5.26869 -5.22539,5.67192 -2.68669,0.90163 -3.24405,3.3737 -3.71275,16.46695 -0.26801,7.48726 -0.92437,10.832 -2.4189,12.32652 -3.75084,3.75084 -16.40485,3.66945 -26.40994,-0.16986 -1.37522,-0.52773 -3.14906,1.3539 -6.2267,6.6051 -5.66962,9.67374 -9.0477,20.31065 -12.01656,37.8378 -1.33921,7.90625 -3.95611,18.3125 -5.81535,23.125 -1.85922,4.8125 -4.46249,14.09375 -5.78501,20.625 -1.32253,6.53125 -3.51209,15.81631 -4.86568,20.63347 -2.25654,8.03054 -2.31205,9.32918 -0.66804,15.625 0.98618,3.77659 2.32739,8.27278 2.98047,9.99153 0.65308,1.71875 1.59261,6.08725 2.08782,9.70779 0.66686,4.87536 1.5926,6.95323 3.56908,8.01101 3.51837,1.88297 6.0414,5.19761 16.32189,21.44288 6.24582,9.86968 8.77543,15.10451 9.22462,19.08961 0.6019,5.34008 0.49406,5.54296 -3.92876,7.39092 -2.5012,1.04508 -5.83014,1.57825 -7.39764,1.18483 -2.31581,-0.58123 -3.22015,0.0591 -4.82494,3.41633 -1.08622,2.27239 -4.35803,7.1429 -7.2707,10.82335 -8.08758,10.21952 -20.17918,14.71193 -33.88275,12.5885 z"
       id="path3426"
       inkscape:connector-curvature="0" />
    <path
       style="fill:#73c3fb"
       d="m 112.35634,647.02547 c -9.34477,-3.33945 -21.319784,-14.83103 -27.436908,-26.32926 -3.729512,-7.01029 -3.923067,-8.03136 -3.435776,-18.125 0.391813,-8.11592 1.255156,-12.17457 3.578863,-16.82454 3.868858,-7.74195 13.770551,-17.51638 20.610171,-20.34528 l 5.25598,-2.17389 0.70946,-9.38064 c 0.72154,-9.54047 -0.63163,-30.99505 -2.97371,-47.14826 -0.71184,-4.90952 -1.40566,-17.00327 -1.54184,-26.875 -0.27232,-19.74237 1.45558,-27.78521 9.09269,-42.3236 11.64362,-22.16538 14.43367,-30.86474 13.25132,-41.31749 -0.49185,-4.3483 -0.0888,-10.25344 1.07861,-15.80317 1.02515,-4.87339 2.46069,-12.71803 3.19007,-17.43253 1.5902,-10.27853 5.6217,-21.16058 9.42733,-25.44681 2.76701,-3.11646 6.8374,-18.05421 6.8374,-25.09235 0,-1.94461 0.83135,-6.7975 1.84744,-10.78416 1.38866,-5.44844 2.95422,-8.22429 6.30428,-11.17789 4.63944,-4.09037 5.38462,-6.367 8.12413,-24.8206 5.08582,-34.25856 4.55376,-49.09911 -2.57685,-71.875 -5.37463,-17.16709 -8.74096,-23.75 -12.14517,-23.75 -1.22812,0 -6.08431,1.06795 -10.79153,2.37323 -7.1513,1.98299 -9.71606,3.49082 -15.59794,9.1701 -7.81102,7.54195 -24.32827,20.23248 -34.302,26.35493 -10.698566,6.56739 -25.896801,17.38478 -32.355834,23.02937 -4.040926,3.53138 -7.712188,5.56557 -10.990818,6.08985 -3.556582,0.56872 -7.257818,2.80603 -13.334375,8.06033 -8.266463,7.14788 -11.252947,8.19905 -10.032255,3.53112 0.778743,-2.97793 0.305262,-2.95452 -3.955448,0.19557 -3.666441,2.71071 -6.994277,2.32096 -8.255959,-0.96692 -0.781666,-2.03699 1.323125,-10.10407 3.154827,-12.09158 0.572271,-0.62094 0.447751,-2.23654 -0.27671,-3.5902 -0.724463,-1.35367 -1.00544,-4.02004 -0.624395,-5.92526 0.65561,-3.27805 0.399388,-3.50805 -4.7720807,-4.28355 C 3.7885445,221.1026 0.42408576,218.59762 1.8411589,216.30475 2.2846699,215.58714 6.6260763,215 11.488729,215 c 6.793878,0 9.82264,-0.60658 13.079541,-2.61945 3.609584,-2.23084 5.350846,-2.49032 11.737307,-1.7491 6.0804,0.7057 8.144054,0.45245 10.909188,-1.33879 6.607157,-4.28007 21.91515,-20.04532 30.263663,-31.16766 4.644388,-6.1875 10.346093,-13.04178 12.670457,-15.23174 6.555087,-6.17604 18.204035,-12.63359 25.535725,-14.15564 7.05842,-1.46532 9.6057,-3.71105 19.31539,-17.02878 10.58566,-14.51921 17.50812,-19.18329 28.49957,-19.20187 2.26852,-0.004 5.91079,-0.93066 8.09393,-2.0596 2.18315,-1.12895 7.35834,-3.0083 11.50043,-4.17632 4.14208,-1.16803 7.51451,-2.63497 7.49427,-3.25987 -0.0658,-2.02896 -4.43595,-19.748284 -6.13785,-24.88618 -2.43589,-7.353778 -3.64777,-30.044303 -1.99507,-37.354395 1.14857,-5.080274 1.06087,-6.457149 -0.52274,-8.207021 -2.85442,-3.15409 -3.68019,-9.271998 -1.74415,-12.921902 C 183.2413,13.886178 197.18457,6.0245894 207.5,4.2426685 c 1.03125,-0.1781415 5.07845,-0.9946678 8.99379,-1.8145029 l 7.11878,-1.49060921 5.02105,4.29784161 c 5.80307,4.967197 16.54128,20.844482 18.8701,27.900898 0.87684,2.656824 1.76423,8.522414 1.97198,13.034647 0.20775,4.512231 0.74629,9.692071 1.19674,11.510753 0.8215,3.316798 -1.83335,10.859053 -5.24658,14.905208 -2.9339,3.477941 -4.38937,14.626442 -2.40763,18.441795 3.37837,6.504251 13.5912,11.564091 30.43579,15.079131 9.02593,1.88347 20.35629,7.83215 25.00728,13.12934 4.13191,4.70599 4.61495,6.81773 5.99754,26.22009 0.43434,6.09525 1.60086,13.02364 2.59227,15.39643 4.32715,10.35633 -0.80645,36.18767 -9.02002,45.38713 -3.71284,4.15849 -3.95461,5.06402 -4.69669,17.59075 -0.43029,7.26362 -1.69427,15.70112 -2.80886,18.75 -3.75793,10.27962 -1.77035,62.84793 2.64645,69.99445 0.36672,0.59339 1.7833,5.1784 3.14792,10.18893 5.32713,19.55961 6.05055,93.92099 1.08467,111.49276 -2.19644,7.77206 -0.47117,14.93559 5.16565,21.44843 6.67126,7.70803 7.29065,9.0896 9.36853,20.89652 2.10372,11.95365 2.42405,45.51556 0.50054,52.44163 -0.89736,3.23119 -0.89565,5.41875 0.005,7.10268 1.79623,3.35628 7.54814,37.27869 8.38954,49.47803 0.60309,8.74414 0.28297,11.07052 -2.54896,18.5242 -1.78127,4.6883 -4.41095,10.17051 -5.84374,12.18268 -3.41029,4.78931 -12.27869,9.91812 -17.14974,9.91812 -8.43192,0 -10.59654,-6.95002 -11.09557,-35.625 -1.16577,-66.98531 -0.80989,-63.79402 -8.92119,-80 -2.40871,-4.8125 -5.66968,-12.53854 -7.24658,-17.16899 -1.5769,-4.63043 -5.96881,-13.94532 -9.7598,-20.69975 -4.55182,-8.11002 -8.14996,-16.71286 -10.59471,-25.33102 -4.08089,-14.38585 -9.15101,-26.64154 -11.67002,-28.20925 -0.896,-0.55761 -2.83733,-0.85785 -4.31407,-0.66718 -4.39472,0.56744 -9.25223,-10.88309 -10.09365,-23.7936 -0.83613,-12.8295 -2.15312,-15.00487 -6.13685,-10.13683 -1.57828,1.92863 -2.88985,4.11946 -2.91457,4.86847 -0.0247,0.74903 -1.4512,2.00259 -3.16995,2.78571 -2.97549,1.35572 -3.125,1.93067 -3.125,12.01683 0,5.82614 -0.64004,11.9977 -1.4223,13.71457 -2.55816,5.61458 -11.84368,7.19312 -22.78554,3.87357 -3.34555,-1.01499 -6.54345,-1.56075 -7.10642,-1.2128 -2.1616,1.33592 -8.8947,15.34093 -11.69152,24.31857 -1.60918,5.16544 -3.8288,15.14644 -4.93247,22.18001 -1.12261,7.15428 -3.8897,17.66409 -6.28083,23.8555 -2.35077,6.08694 -4.90851,15.15583 -5.68386,20.15308 -0.77535,4.99725 -2.49744,13.01104 -3.82686,17.80842 -2.48195,8.9564 -2.35154,13.16035 0.65811,21.21507 0.93924,2.51371 2.34904,8.25313 3.13289,12.75427 1.20596,6.92519 2.04461,8.65639 5.45269,11.25585 2.21513,1.68958 8.42306,9.91201 13.79538,18.27209 7.33828,11.41939 9.92295,16.57617 10.39142,20.73232 0.6074,5.38884 0.50571,5.58142 -3.9241,7.4323 -2.5012,1.04508 -5.83014,1.57825 -7.39764,1.18483 -2.30821,-0.57933 -3.23999,0.0701 -4.90155,3.41634 -4.16865,8.39521 -11.57505,16.48661 -18.31268,20.00639 -5.5637,2.90652 -8.2132,3.49092 -15.61996,3.44537 -4.90587,-0.0301 -10.95316,-0.78153 -13.43842,-1.66966 z"
       id="path3424"
       inkscape:connector-curvature="0" />
    <path
       style="fill:#56b5f8"
       d="m 111.51475,646.55581 c -8.27312,-3.36591 -20.514591,-15.15362 -25.886902,-24.92735 -4.542869,-8.26474 -4.642283,-8.72666 -4.113067,-19.11145 0.426269,-8.36469 1.257419,-12.03544 3.883978,-17.1535 4.120115,-8.02837 11.728465,-15.49866 19.583231,-19.22786 l 5.945,-2.8225 0.79564,-9.54044 c 0.43761,-5.24723 0.5152,-12.03957 0.17242,-15.09407 -0.69755,-6.21602 -3.87434,-42.68297 -5.0573,-58.05364 -1.30582,-16.96701 2.66696,-30.91208 15.51812,-54.47091 3.78494,-6.9386 7.69813,-20.46863 7.56433,-26.15409 -0.0566,-2.40625 -0.17449,-6.34375 -0.26191,-8.75 -0.26475,-7.28727 5.38172,-36.38406 8.59812,-44.30695 1.65941,-4.08757 4.07517,-8.58758 5.36834,-10 C 146.08474,334.25621 150,319.21151 150,312.44562 c 0,-9.7508 6.33595,-23.69562 10.7663,-23.69562 0.92981,0 1.93951,-2.44449 2.45248,-5.9375 0.47958,-3.26563 1.42973,-7.34375 2.11145,-9.0625 0.68172,-1.71875 1.37978,-4.8125 1.55125,-6.875 0.17147,-2.0625 0.98913,-10.78125 1.81703,-19.375 2.17087,-22.5339 0.92104,-35.99847 -5.04728,-54.375 C 157.96064,175.60362 154.91698,170 151.09064,170 c -1.48286,0 -6.43096,1.11229 -10.99579,2.47175 -6.02919,1.79557 -9.4856,3.71419 -12.63476,7.01341 -5.07678,5.31869 -24.96859,20.65378 -35.641244,27.47671 -12.41559,7.93719 -28.395016,19.44567 -33.826201,24.36184 -3.410524,3.08711 -6.892536,4.94305 -10.379017,5.53209 -3.911472,0.66084 -7.366832,2.7401 -13.577909,8.1705 -8.607555,7.52566 -11.061081,8.23316 -9.696456,2.79606 l 0.79183,-3.1549 -3.911453,3.29126 c -4.557056,3.83452 -5.364059,3.96829 -8.005354,1.32699 -2.514724,-2.51472 -2.447524,-3.72466 0.577102,-10.39084 1.848331,-4.07366 2.13372,-5.90518 1.111983,-7.1363 -0.775637,-0.93458 -1.022431,-3.25913 -0.566438,-5.33525 0.768905,-3.50081 0.567851,-3.71966 -4.149145,-4.5166 -2.7264636,-0.46063 -5.9934621,-1.6299 -7.2599971,-2.59836 -3.51469904,-2.68755 -0.1048213,-4.26627 9.2642401,-4.28922 5.442454,-0.0134 9.239574,-0.78753 12.499999,-2.54866 3.916693,-2.11562 6.031526,-2.39916 12.924424,-1.7328 l 8.241454,0.79671 12.257632,-11.70469 c 6.741699,-6.43759 15.864431,-16.61229 20.27274,-22.61044 4.408309,-5.99816 10.256279,-12.82411 12.995489,-15.16877 6.430311,-5.5041 17.656361,-11.46156 25.149541,-13.3464 6.25233,-1.57271 10.88348,-5.87616 19.64225,-18.25236 9.54178,-13.48258 12.88257,-15.73529 26.69293,-17.99914 6.46631,-1.05998 26.25912,-7.37892 27.7012,-8.84372 0.41482,-0.42137 -1.21735,-8.042952 -3.62708,-16.936855 -2.40971,-8.893901 -4.34328,-17.830395 -4.29682,-19.858872 0.0465,-2.028479 -0.32068,-7.137154 -0.81585,-11.352613 -0.5739,-4.885661 -0.33859,-10.005989 0.64902,-14.122819 1.34513,-5.607142 1.28583,-6.749521 -0.44997,-8.667552 -2.94161,-3.250449 -3.8013,-9.332989 -1.8406,-13.022793 3.53635,-6.655001 18.02801,-13.862399 32.93661,-16.3809569 2.0625,-0.3484248 5.33518,-0.962601 7.27261,-1.3648358 2.8804,-0.598004 4.32752,0.073555 7.9375,3.6835452 C 230.7633,8.0133034 233.21835,10 233.79076,10 c 0.57243,0 1.41896,1.191598 1.88121,2.647996 0.46224,1.456399 2.95784,5.445565 5.54578,8.864814 5.64227,7.454739 7.53225,13.205381 7.53225,22.918468 0,3.996425 0.69399,9.185418 1.5422,11.531096 1.42994,3.954432 1.20839,4.916253 -3.04365,13.213747 -7.71474,15.054662 -7.32968,21.390148 1.72726,28.418924 4.01686,3.117355 7.10454,4.218655 22.78894,8.128275 10.36979,2.58485 22.46579,8.62633 26.23147,13.1016 3.99999,4.75372 5.30954,9.93046 6.31704,24.97174 0.4392,6.55691 1.51254,13.99851 2.38519,16.53689 1.75956,5.11822 1.6078,19.14611 -0.28038,25.91645 -0.67107,2.40625 -1.81525,6.65044 -2.5426,9.43152 -0.72733,2.78109 -3.21567,7.28109 -5.52963,10 -4.00203,4.70242 -4.24719,5.56444 -5.02765,17.67759 -0.45125,7.00378 -1.41235,14.29089 -2.13576,16.19361 -4.18188,10.99917 -3.55643,56.02903 0.97988,70.54792 7.85343,25.1356 8.13844,27.71701 8.26956,74.89936 0.0752,27.05622 -0.31716,35.18404 -2.14166,44.36375 -2.79671,14.0714 -2.03895,20.22402 3.09584,25.13634 6.8309,6.53495 8.8526,11.22682 10.6299,24.66936 1.97284,14.92145 2.20064,40.41758 0.42971,48.09584 -0.94806,4.1106 -0.80069,6.78142 0.6208,11.25 3.05373,9.59975 7.40366,38.82665 7.48384,50.28342 0.0695,9.9328 -0.25896,11.34994 -4.73208,20.41567 -3.91705,7.93876 -5.87116,10.41698 -10.55722,13.3888 -5.50534,3.49137 -11.83411,4.64476 -14.76138,2.69018 -4.42546,-2.95496 -5.7898,-11.45327 -6.36843,-39.66836 -0.2538,-12.375 -0.62843,-30.65625 -0.83252,-40.625 -0.39502,-19.29579 -1.61116,-24.28437 -8.98938,-36.87437 -1.69712,-2.89589 -4.44963,-9.2755 -6.1167,-14.17693 -1.66709,-4.90142 -6.10009,-14.40437 -9.85113,-21.11769 -4.73333,-8.47135 -8.0544,-16.60431 -10.85426,-26.58101 -5.92793,-21.12293 -10.45803,-29.30692 -15.51918,-28.03665 -2.12841,0.5342 -3.2254,-0.3074 -5.32163,-4.08273 -3.04137,-5.4775 -5.33905,-16.15723 -5.10542,-23.73013 0.0886,-2.87348 -0.59773,-6.13897 -1.52532,-7.25663 -1.52706,-1.84 -1.9578,-1.7006 -4.55613,1.47452 -1.57828,1.92863 -2.88985,4.20974 -2.91457,5.06912 -0.0248,0.85937 -0.81983,1.5625 -1.7669,1.5625 -3.48744,0 -4.89628,3.76244 -4.81148,12.84957 0.12351,13.23097 -1.28918,16.77222 -7.42393,18.61024 -3.97702,1.19154 -6.50769,1.17027 -12.0983,-0.10162 -11.50672,-2.61799 -11.4624,-2.63149 -16.05228,4.89187 -5.00237,8.19949 -9.58205,22.89623 -11.68542,37.5 -1.58322,10.99225 -3.11173,16.57451 -8.04334,29.375 -1.58923,4.125 -3.53956,11.4375 -4.33408,16.25 -0.79451,4.8125 -2.58945,13.05083 -3.98873,18.3074 -2.42687,9.11676 -2.44989,9.89476 -0.49952,16.875 1.12457,4.02468 2.93385,11.3869 4.02064,16.36049 1.66534,7.62118 2.62404,9.53719 6.09786,12.1868 3.69245,2.81636 11.03,13.52789 20.82383,30.39906 3.36352,5.79411 4.30141,10.83058 2.51006,13.479 -1.27106,1.87919 -8.3907,4.17906 -11.14564,3.60039 -1.68112,-0.35311 -3.90985,2.02294 -8.56206,9.12809 -8.72597,13.32686 -14.8272,17.05224 -28.61069,17.46959 -7.30133,0.22107 -11.58526,-0.29848 -15.46022,-1.875 z"
       id="path3422"
       inkscape:connector-curvature="0" />
    <path
       style="fill:#2fa7fb"
       d="M 114.99191,647.58208 C 105.51016,644.69785 87.5,629.26234 87.5,624.02028 87.5,622.49662 87.001592,621.25 86.392426,621.25 83.945887,621.25 81.25,612.49275 81.25,604.54547 c 0,-15.88541 9.24057,-30.96102 23.35089,-38.09601 l 6.74216,-3.40924 0.56089,-10.191 c 0.30849,-5.60505 -0.55054,-21.89847 -1.90894,-36.20761 -3.00493,-31.65321 -3.18554,-50.94135 -0.57181,-61.06649 1.86215,-7.21365 8.55422,-22.9517 10.32908,-24.29138 1.75077,-1.32149 6.33796,-12.13727 8.98619,-21.1879 2.30566,-7.87982 2.50151,-10.04765 1.29873,-14.375 -1.11869,-4.02475 -1.02757,-6.80361 0.43351,-13.22084 1.01745,-4.46875 2.49072,-12.4808 3.27395,-17.80456 1.52679,-10.37797 6.32112,-23.74777 9.97625,-27.82044 2.16395,-2.41114 4.4979,-11.59256 7.62612,-30 1.79525,-10.56383 4.01468,-15.27386 8.06733,-17.12038 2.13972,-0.97492 3.25099,-2.72279 3.7405,-5.88329 0.38302,-2.47298 1.36094,-6.74633 2.17315,-9.49633 0.8122,-2.75 1.57337,-6.125 1.69149,-7.5 0.11812,-1.375 0.88204,-9.8125 1.69761,-18.75 1.96876,-21.57504 0.82872,-36.75704 -3.94234,-52.5 -4.44134,-14.655 -9.10775,-25.10157 -11.64815,-26.07641 -0.9934,-0.3812 -3.3689,-0.18184 -5.27889,0.44303 -1.91,0.62488 -5.94247,1.76913 -8.96105,2.54279 -3.57777,0.91696 -7.71162,3.46538 -11.875,7.32063 -9.37997,8.68575 -25.39981,20.6749 -44.51167,33.31225 -9.28125,6.13705 -19.180421,13.27187 -21.998159,15.85516 -5.11026,4.68506 -12.356886,8.47755 -16.198786,8.47755 -1.114984,0 -5.492425,3.09122 -9.727649,6.86939 -8.54435,7.62223 -11.317376,8.651 -10.085165,3.74148 0.624053,-2.48642 0.389192,-2.98615 -1.129536,-2.40336 -1.054575,0.40469 -2.224496,1.53604 -2.599825,2.51414 -1.027926,2.67872 -8.224686,2.32839 -8.404823,-0.40915 -0.264188,-4.01486 0.389067,-7.15635 2.228089,-10.71479 1.389477,-2.6886 1.48074,-3.9396 0.383824,-5.26131 -0.850197,-1.02442 -1.100114,-3.27739 -0.61072,-5.50559 0.796696,-3.62733 0.634594,-3.80257 -4.238291,-4.58177 -2.7866689,-0.44562 -6.0628105,-1.57325 -7.2803147,-2.50587 -3.40872057,-2.61109 0.059201,-4.20121 9.2123507,-4.22403 4.867398,-0.0125 9.659064,-0.90699 13.09579,-2.44565 4.245616,-1.90083 7.072016,-2.27223 13.046157,-1.71435 l 7.626364,0.71215 12.221404,-11.68374 c 6.721771,-6.42605 16.240552,-17.00869 21.152846,-23.51698 11.939938,-15.81917 22.894444,-23.8034 37.841254,-27.58072 5.32007,-1.34448 9.98525,-5.76059 19.21519,-18.1893 10.70515,-14.41519 14.04398,-16.82369 23.39735,-16.878 2.60021,-0.0151 6.97765,-1.04432 9.72765,-2.28717 2.75,-1.24284 8.79687,-3.28272 13.4375,-4.53307 4.64062,-1.25035 8.43608,-2.893 8.43435,-3.65034 -0.002,-0.75733 -1.49598,-6.72072 -3.32053,-13.25197 -1.82455,-6.53125 -3.73201,-15.53125 -4.23881,-20 -0.5068,-4.46875 -1.33975,-11.344781 -1.85101,-15.280069 -0.60724,-4.674024 -0.38679,-9.093685 0.63575,-12.745827 1.41331,-5.047854 1.30336,-6.131875 -1.13222,-11.163133 -3.69182,-7.626283 -2.57494,-11.047616 5.6283,-17.241118 6.89547,-5.2061332 13.86112,-7.9139221 25.34012,-9.8505742 3.67589,-0.6201702 7.63556,-1.4297738 8.79926,-1.7991192 2.40012,-0.7617674 10.645,6.1499777 15.60268,13.0798404 9.39212,13.128363 11.02551,17.181921 12.24886,30.397854 0.64795,6.99993 1.15194,14.011521 1.11998,15.581312 -0.0613,3.009755 -3.02919,9.612687 -5.74028,12.770834 -0.88526,1.03125 -2.00169,5.064919 -2.48095,8.963709 l -0.87137,7.088709 5.46825,5.468252 c 4.89482,4.89482 6.84208,5.83715 18.56918,8.98612 27.62325,7.41739 34.88625,12.19281 37.25209,24.49321 2.43686,12.66971 4.33027,31.76475 4.40011,44.375 0.0866,15.65242 -2.29322,24.90268 -8.17478,31.77396 -4.16933,4.87092 -4.41452,5.68945 -5.18047,17.29448 -0.4422,6.69986 -1.38791,14.15031 -2.10157,16.55656 -4.29265,14.47343 -3.57923,57.25684 1.21937,73.125 1.45533,4.8125 3.45035,11.5625 4.43339,15 4.2037,14.69956 5.12023,79.45951 1.41501,99.98189 -1.23945,6.86502 -2.46503,12.82406 -2.72351,13.2423 -1.21582,1.96725 2.66833,11.0223 6.59414,15.37281 2.40561,2.66584 5.39378,7.16584 6.6404,10 4.30201,9.7806 6.47133,45.8487 3.66926,61.00656 -0.82546,4.46528 -0.85818,8.05379 -0.0917,10.06949 1.90484,5.01011 6.1632,30.40502 7.53466,44.93327 1.13725,12.04707 1.01907,14.05907 -1.20559,20.52513 -5.47938,15.92612 -13.014,23.49355 -23.07977,23.18027 -9.47888,-0.295 -10.84929,-5.14975 -11.34409,-40.18672 -0.1699,-12.03125 -0.62519,-27.08076 -1.01175,-33.44336 -0.38655,-6.36262 -0.21471,-12.85219 0.38186,-14.4213 1.38015,-3.63007 -3.03577,-18.00315 -8.51291,-27.70812 -2.15522,-3.81885 -5.25795,-11.01786 -6.89494,-15.9978 -2.65841,-8.08722 -5.33331,-13.44563 -14.19188,-28.42942 -1.42262,-2.40625 -4.24909,-10.5625 -6.28108,-18.125 -2.03197,-7.5625 -5.31467,-17.125 -7.29486,-21.25 -3.32871,-6.93414 -3.89054,-7.47828 -7.44649,-7.21209 -3.30832,0.24766 -4.23797,-0.40925 -6.64827,-4.69781 -2.68135,-4.7708 -5.78123,-24.13088 -4.26014,-26.60636 0.34345,-0.55895 -0.35611,-2.09979 -1.55459,-3.42409 -2.14179,-2.36664 -2.22939,-2.3535 -5.12246,0.76816 -1.61886,1.7468 -2.9434,3.54775 -2.9434,4.00214 0,0.45437 -1.49813,2.0207 -3.32918,3.48074 -3.14192,2.50527 -3.33782,3.29433 -3.48283,14.02831 -0.12325,9.1186 -0.60694,11.8746 -2.43979,13.89986 -3.31076,3.65835 -11.90959,4.61174 -19.42466,2.15368 C 180.43099,420.9079 176.8621,420 175.89269,420 c -2.5098,0 -13.15439,21.80841 -14.64287,30 -4.47261,24.61437 -6.51148,33.32646 -9.83901,42.04201 -2.0648,5.40814 -4.68244,14.89549 -5.817,21.08299 -1.13455,6.1875 -2.89992,14.21249 -3.92306,17.83331 -1.89925,6.72133 -1.65715,10.04955 1.47602,20.29169 0.9464,3.09375 2.07749,7.59375 2.51353,10 0.43602,2.40625 1.08255,5.85629 1.43672,7.66675 0.36048,1.84275 1.94897,3.88636 3.6086,4.64254 1.63057,0.74294 5.62563,5.44915 8.87793,10.45825 3.2523,5.0091 8.00586,12.33762 10.56349,16.28559 7.65603,11.81797 7.90585,18.78312 0.7338,20.45936 -2.20322,0.51493 -5.13084,0.82562 -6.50584,0.69041 -1.80866,-0.17785 -3.70984,1.70154 -6.875,6.79617 -5.54063,8.91819 -14.55414,17.09712 -20.95523,19.01493 -5.46846,1.63839 -16.66897,1.80369 -21.55286,0.31808 z"
       id="path3420"
       inkscape:connector-curvature="0" />
    <path
       style="fill:#0095fd"
       d="M 112.86888,646.50169 C 104.41335,643.4744 87.5,628.512 87.5,624.0591 c 0,-0.91318 -1.122044,-3.18443 -2.493431,-5.04721 -1.502556,-2.04097 -2.805785,-6.40168 -3.279435,-10.97327 -1.8264,-17.62808 9.34765,-36.4459 25.247266,-42.51802 l 5.13045,-1.95934 -0.2656,-20.84312 c -0.14608,-11.46373 -1.00897,-25.06189 -1.91754,-30.21814 -0.93502,-5.30639 -1.68335,-19.13968 -1.72432,-31.875 -0.0821,-25.5364 0.30972,-27.16371 11.74048,-48.75303 8.1487,-15.39047 12.12267,-29.43061 10.28796,-36.34766 -1.03002,-3.88327 -0.94493,-6.86674 0.35649,-12.5 0.94018,-4.06962 2.59542,-12.57597 3.6783,-18.90301 1.98458,-11.59534 6.77705,-24.56913 10.0172,-27.11765 1.76415,-1.38759 3.75002,-9.36969 7.4957,-30.12865 1.88118,-10.42563 2.39435,-11.58304 7.0032,-15.79484 3.33747,-3.04995 4.97328,-5.60527 4.97328,-7.76881 0,-1.77319 0.78394,-5.63426 1.7421,-8.58016 2.20131,-6.76809 3.2196,-16.79764 4.05695,-39.95865 0.73982,-20.46353 -0.0839,-26.24935 -6.37414,-44.77254 -4.6659,-13.73987 -7.61157,-19.86229 -9.99671,-20.77755 -0.93009,-0.35691 -5.7989,0.57442 -10.81956,2.06965 -7.39233,2.20152 -10.55744,4.0117 -16.64161,9.51756 -7.57745,6.8572 -20.79585,16.57088 -49.46703,36.35136 -8.59375,5.9289 -17.154989,12.30798 -19.024976,14.17573 -2.000889,1.99849 -6.022509,4.02502 -9.773094,4.92479 -4.837105,1.1604 -8.125045,3.15086 -13.642095,8.25867 -8.056879,7.45925 -10.530605,8.41571 -9.32314,3.60479 0.95019,-3.78586 -0.773806,-4.03708 -3.911492,-0.56998 -3.010043,3.32607 -7.321072,2.73144 -7.861678,-1.08437 -0.226311,-1.59739 0.482675,-5.13904 1.575524,-7.87034 1.326941,-3.31635 1.606019,-5.67786 0.840119,-7.10896 -0.630783,-1.17863 -0.862902,-3.62849 -0.515818,-5.44414 0.668562,-3.49735 0.296578,-3.74816 -8.05085,-5.42821 C 4.2694337,220.15749 2.5,219.02796 2.5,218.02567 c 0,-1.3584 1.9827748,-1.77677 8.4375,-1.78035 6.384831,-0.004 9.492794,-0.64798 12.775289,-2.64903 3.572268,-2.1777 5.690302,-2.5358 12.001738,-2.02918 4.215172,0.33835 8.731917,0.039 10.03721,-0.66511 4.455277,-2.40348 26.093397,-24.00991 31.573225,-31.527 11.620367,-15.94053 24.224148,-26.10954 36.425038,-29.38854 3.09375,-0.83145 6.85024,-2.08573 8.34776,-2.7873 2.55267,-1.19587 10.55791,-10.8541 19.25615,-23.2323 4.32698,-6.1576 11.78254,-10.14763 19.03936,-10.18941 2.62255,-0.0151 7.4038,-1.12709 10.625,-2.4711 3.2212,-1.344 9.0911,-3.35267 13.04423,-4.4637 3.95312,-1.11102 7.18897,-2.68326 7.19076,-3.49385 0.006,-2.57631 -3.93142,-18.791557 -5.75121,-23.686595 -0.96362,-2.592037 -1.76547,-7.373287 -1.78188,-10.625 -0.0164,-3.251712 -0.57451,-8.162205 -1.24024,-10.912205 -0.81538,-3.368155 -0.75065,-7.951646 0.19832,-14.043895 1.07006,-6.869636 1.0551,-9.470014 -0.0622,-10.816352 -2.69388,-3.245914 -3.83125,-9.47335 -2.33142,-12.765109 2.12376,-4.661156 14.64272,-12.3909027 23.66791,-14.6135824 19.08477,-4.7001112 18.88035,-4.7023345 24.46442,0.2660685 5.93636,5.2818519 16.85083,21.2864589 18.97518,27.8245579 0.82233,2.530928 1.52682,7.874678 1.56551,11.875 0.0387,4.000322 0.14656,10.136611 0.23971,13.636197 0.13456,5.055264 -0.52651,7.367226 -3.21676,11.25 -2.21019,3.189914 -3.67233,7.32355 -4.21025,11.902861 -0.79819,6.794977 -0.68124,7.173895 3.71629,12.04144 5.28751,5.852644 7.66831,6.847794 32.01342,13.381254 3.78125,1.01477 9.92501,3.69375 13.6528,5.9533 9.51363,5.76653 11.3638,9.93209 12.53064,28.21201 0.51722,8.10303 1.58755,15.94194 2.37849,17.41983 1.73737,3.24632 1.90732,21.04796 0.2492,26.10239 -0.65389,1.99322 -1.78659,5.96272 -2.51712,8.82113 -0.73052,2.8584 -3.57052,7.91059 -6.31111,11.22708 -4.95066,5.99098 -4.9829,6.09905 -4.9829,16.70303 0,7.07849 -0.88932,13.82195 -2.64061,20.02291 -2.40823,8.52699 -2.57224,11.33012 -1.86364,31.84988 0.77994,22.58556 1.49916,27.42442 7.33885,49.375 6.37113,23.94819 6.91126,88.57059 0.947,113.29923 -1.58879,6.58733 0.0729,11.66516 6.28326,19.20077 6.03513,7.32296 6.7767,8.95359 8.81138,19.375 1.49391,7.65166 1.84986,27.17354 1.02565,56.25 -0.078,2.75 1.32002,12.59375 3.10661,21.875 1.78659,9.28125 3.76759,22.4574 4.4022,29.28032 1.08311,11.64496 0.9659,12.90464 -1.91237,20.55153 -5.50228,14.6182 -12.96082,21.57046 -22.75164,21.20732 -4.03735,-0.14974 -5.73274,-0.84957 -6.7998,-2.80683 -2.37284,-4.35235 -4.36761,-21.77909 -3.79334,-33.13935 0.29799,-5.89489 -0.0641,-19.33399 -0.8048,-29.86466 -0.9474,-13.47057 -0.95472,-19.87892 -0.0248,-21.61666 1.81821,-3.39734 -1.27089,-13.83912 -8.09467,-27.36167 -2.94889,-5.84375 -6.36277,-13.71875 -7.58638,-17.5 -1.22362,-3.78125 -5.47547,-12.78125 -9.44859,-20 -5.0634,-9.19973 -8.3623,-17.26683 -11.03057,-26.9741 -2.09371,-7.617 -5.38305,-16.89825 -7.30964,-20.625 -3.02397,-5.84951 -3.96746,-6.74424 -6.90104,-6.54434 -6.39266,0.43563 -10.93375,-9.89626 -10.94616,-24.90477 -0.005,-5.99805 -0.59817,-9.11369 -2.06036,-10.8214 -2.0053,-2.342 -2.12243,-2.31615 -5,1.10366 -1.62064,1.92601 -2.94661,4.13582 -2.94661,4.91069 0,0.77487 -1.35858,2.02786 -3.01907,2.78443 -3.76336,1.7147 -4.44241,4.20695 -4.46387,16.38333 -0.0144,8.16674 -0.42994,10.10037 -2.64713,12.31756 -2.3485,2.3485 -3.58626,2.55043 -11.5625,1.88628 -19.31675,-1.60847 -16.65852,-2.56537 -22.1781,7.98366 -4.80177,9.17717 -7.74102,19.56687 -11.66963,41.25 -1.05879,5.84375 -3.60632,14.92034 -5.66118,20.1702 -2.05485,5.24985 -4.59376,14.46342 -5.64202,20.47461 -1.04827,6.01118 -2.74982,13.77105 -3.78122,17.24418 -2.49216,8.392 -2.3658,12.67706 0.62472,21.18561 1.375,3.91211 2.5,8.32736 2.5,9.81165 0,5.40632 2.84972,12.12846 5.81421,13.71501 1.64651,0.88119 4.86196,4.45326 7.14544,7.93795 17.61345,26.87884 18.90015,29.36096 17.69976,34.14371 -0.84805,3.37892 -6.12753,5.77912 -10.70631,4.8674 -2.70888,-0.53938 -3.57767,0.13163 -5.95143,4.59655 -4.17791,7.85842 -12.4023,16.87408 -17.99664,19.72809 -7.23182,3.68942 -19.93982,4.31123 -28.13615,1.37673 z m 52.98501,-47.98607 c -0.39903,-0.99716 -0.69523,-0.70097 -0.7552,0.75522 -0.0542,1.3177 0.24115,2.05598 0.65652,1.64062 0.41536,-0.41536 0.45976,-1.4935 0.0986,-2.39584 z"
       id="path3418"
       inkscape:connector-curvature="0" />
  </g>
</svg>
